<?xml version="1.0" standalone="no"?>
<!DOCTYPE svg PUBLIC "-//W3C//DTD SVG 20010904//EN"
 "http://www.w3.org/TR/2001/REC-SVG-20010904/DTD/svg10.dtd">
<svg version="1.0" xmlns="http://www.w3.org/2000/svg"
 width="3859.000000pt" height="3859.000000pt" viewBox="0 0 3859.000000 3859.000000"
 preserveAspectRatio="xMidYMid meet">
<metadata>
Created by potrace 1.11, written by Peter Selinger 2001-2013
</metadata>
<g transform="translate(0.000000,3859.000000) scale(0.100000,-0.100000)"
fill="#000000" stroke="none">
<path d="M19307 31114 c-1 -1 -65 -5 -142 -8 -77 -4 -156 -9 -175 -11 -19 -2
-66 -6 -105 -9 -80 -7 -147 -15 -190 -23 -35 -5 -67 -11 -110 -17 -111 -16
-150 -23 -235 -41 -14 -3 -41 -8 -60 -12 -19 -4 -37 -8 -40 -8 -3 -1 -32 -7
-65 -14 -33 -7 -73 -16 -90 -21 -16 -5 -59 -16 -95 -26 -126 -32 -421 -124
-465 -143 -11 -5 -54 -22 -95 -37 -41 -15 -91 -34 -110 -42 -19 -9 -39 -17
-45 -18 -44 -9 -456 -208 -587 -283 -21 -11 -55 -31 -75 -42 -187 -106 -502
-314 -628 -416 -6 -4 -55 -44 -110 -87 -313 -249 -638 -573 -901 -901 -95
-118 -216 -281 -234 -315 -7 -14 -16 -27 -20 -30 -21 -14 -211 -322 -309 -500
-86 -157 -237 -476 -256 -540 -4 -14 -11 -29 -15 -35 -20 -26 -183 -490 -195
-555 -2 -14 -9 -36 -15 -50 -8 -21 -39 -141 -55 -215 -14 -63 -17 -75 -16 -80
0 -2 -5 -19 -10 -37 -5 -18 -11 -44 -14 -58 -3 -14 -7 -36 -10 -50 -3 -14 -7
-38 -10 -55 -3 -16 -8 -41 -10 -55 -10 -47 -13 -65 -19 -110 -3 -25 -8 -56
-11 -70 -3 -14 -7 -50 -11 -80 -3 -30 -7 -66 -9 -80 -8 -52 -18 -164 -30 -355
-5 -66 -9 -1101 -9 -2300 l-1 -2180 -60 -2 c-33 -2 -312 -4 -620 -6 -308 -2
-570 -6 -581 -9 -12 -4 -39 -9 -59 -12 -63 -10 -198 -46 -232 -61 -17 -8 -36
-15 -43 -15 -25 0 -266 -124 -315 -162 -5 -4 -38 -28 -72 -53 -145 -107 -309
-286 -398 -435 -53 -90 -125 -244 -140 -300 -2 -8 -12 -40 -23 -70 -11 -30
-20 -58 -20 -63 0 -4 -6 -31 -11 -60 -6 -28 -14 -63 -16 -77 -3 -14 -8 -63
-12 -110 -9 -112 -9 -10093 0 -10190 8 -87 11 -111 23 -165 4 -22 9 -42 9 -45
16 -76 45 -171 58 -187 5 -7 6 -13 3 -13 -4 0 -1 -10 6 -23 7 -12 13 -24 13
-27 8 -30 61 -142 88 -182 12 -18 28 -45 36 -60 8 -15 22 -37 33 -47 10 -11
18 -23 18 -26 0 -13 78 -104 165 -191 73 -75 152 -141 250 -212 49 -34 285
-152 306 -152 8 0 26 -6 41 -14 23 -12 78 -28 93 -27 2 0 23 -6 45 -14 22 -8
40 -12 40 -10 0 3 10 1 23 -4 13 -5 52 -13 87 -17 80 -11 13948 -12 14010 -1
83 13 105 18 122 23 10 3 29 7 44 10 28 5 168 49 199 63 216 95 374 201 525
351 152 152 256 308 349 521 23 52 76 236 86 295 3 22 9 57 13 79 10 57 9
10290 -1 10350 -24 145 -81 342 -113 393 -8 12 -12 22 -9 22 8 0 -72 148 -116
214 -21 32 -39 62 -39 66 0 5 -3 10 -7 12 -5 2 -38 39 -74 83 -138 166 -339
320 -536 410 -79 37 -213 86 -213 79 0 -4 -7 -1 -15 6 -8 7 -15 10 -15 6 0 -3
-11 -1 -25 4 -26 10 -58 17 -110 25 -16 3 -41 8 -55 12 -14 4 -304 8 -645 10
-341 3 -621 5 -622 7 -1 1 -4 1032 -6 2291 -2 1260 -6 2308 -10 2330 -4 22 -9
69 -12 105 -7 86 -13 136 -20 185 -3 22 -8 58 -10 79 -3 22 -7 51 -10 65 -2
14 -7 43 -10 65 -4 21 -9 48 -11 60 -2 11 -6 32 -9 46 -3 14 -7 36 -10 50 -3
14 -7 36 -10 50 -3 14 -12 57 -20 95 -9 39 -18 81 -21 94 -3 14 -14 57 -25 97
-11 40 -22 81 -24 91 -4 20 -38 130 -80 263 -30 92 -108 306 -130 355 -8 17
-26 59 -41 95 -48 117 -145 322 -209 439 -100 185 -261 454 -276 459 -5 2 -9
8 -9 13 0 21 -245 355 -371 505 -230 274 -515 560 -755 757 -130 107 -284 223
-424 319 -107 73 -302 197 -340 216 -14 7 -41 22 -60 34 -86 53 -350 188 -490
251 -98 44 -254 109 -280 118 -14 4 -50 17 -80 29 -30 12 -59 22 -65 23 -5 2
-14 5 -20 8 -11 7 -64 20 -67 17 -2 -1 -13 4 -26 11 -23 12 -116 42 -257 83
-69 19 -84 23 -126 33 -12 2 -36 9 -53 14 -17 6 -47 13 -66 16 -19 3 -43 8
-52 11 -22 7 -64 15 -188 39 -14 3 -36 7 -50 10 -14 2 -41 7 -60 10 -19 3 -46
7 -60 10 -29 5 -104 16 -140 20 -14 2 -43 6 -65 8 -179 24 -417 39 -668 41
-103 1 -189 1 -190 0z m478 -1059 c156 -12 157 -12 215 -19 30 -4 71 -9 90
-11 19 -2 51 -7 70 -10 19 -4 46 -8 60 -10 14 -2 40 -6 58 -9 17 -3 44 -8 60
-11 15 -3 38 -7 52 -10 14 -3 45 -10 70 -15 45 -9 72 -15 110 -25 11 -3 29 -7
40 -10 11 -3 30 -8 43 -11 12 -3 27 -6 32 -8 6 -1 37 -10 70 -20 33 -10 67
-19 75 -21 8 -2 62 -20 120 -40 58 -20 110 -38 115 -39 6 -2 24 -8 40 -15 17
-6 44 -17 60 -23 255 -95 614 -280 877 -454 127 -84 322 -225 343 -248 6 -6
28 -24 50 -41 21 -16 46 -36 55 -45 9 -8 43 -37 75 -65 94 -77 391 -380 490
-499 179 -213 361 -474 487 -693 10 -18 28 -50 39 -70 33 -57 149 -292 150
-300 0 -5 6 -17 13 -28 31 -48 210 -524 231 -615 2 -8 20 -78 40 -155 21 -77
39 -149 40 -160 2 -11 6 -31 9 -45 3 -14 9 -41 12 -60 4 -19 9 -44 11 -55 6
-32 11 -64 28 -175 3 -25 8 -56 10 -70 2 -14 7 -54 10 -90 4 -36 8 -83 11
-105 15 -149 18 -588 18 -2460 l1 -2110 -4689 -3 c-2842 -1 -4692 2 -4695 7
-8 12 -5 4400 2 4466 3 28 9 82 12 120 3 39 7 84 9 100 13 112 17 143 21 165
3 13 7 42 10 65 3 22 8 47 10 55 2 8 6 31 9 50 3 19 8 46 11 60 3 14 7 36 10
50 5 23 72 292 78 315 27 91 45 148 77 240 359 1042 1076 1927 2025 2500 119
72 515 279 515 270 0 -2 35 12 78 32 42 19 88 39 102 43 30 10 159 58 180 67
8 3 17 7 20 8 31 8 191 59 210 66 14 5 35 11 48 14 27 6 35 8 142 35 84 22
101 26 150 35 43 8 74 14 100 20 55 12 102 20 185 31 28 3 59 8 70 10 11 2 45
7 75 10 30 2 71 7 90 9 19 2 85 7 145 10 61 4 111 8 112 9 6 5 423 -2 508 -9z"/>
</g>
</svg>
